<svg width="27" height="28" viewBox="0 0 27 28" fill="none" xmlns="http://www.w3.org/2000/svg">
<path d="M23.5659 27.3312H3.54205C3.54205 26.9332 3.54205 26.5703 3.54205 26.2073C3.54205 21.0539 3.52968 15.9005 3.55855 10.7451C3.56267 10.0522 3.35027 9.64594 2.76667 9.25C-0.134822 7.28062 -0.0090282 3.69654 3.0162 1.91894C4.85154 0.842479 6.8003 0.747618 8.76144 1.5395C9.31204 1.76221 9.71829 1.78283 10.2792 1.5065C12.5022 0.411482 14.7913 0.380549 17.0308 1.45288C17.6556 1.7519 18.1238 1.72922 18.7445 1.48794C20.6809 0.733183 22.5863 0.883722 24.3866 1.94987C27.3623 3.71304 27.4551 7.46415 24.5103 9.27475C23.737 9.74905 23.5452 10.246 23.5494 11.0771C23.5824 16.0593 23.5659 21.0416 23.5659 26.0238C23.5659 26.428 23.5659 26.8322 23.5659 27.3333V27.3312ZM5.35471 24.7391C5.02476 25.7062 5.55474 25.7269 6.17546 25.7248C11.1206 25.7165 16.0657 25.7207 21.0108 25.7145C21.2768 25.7145 21.5429 25.667 21.7738 25.6464C22.2646 24.3761 21.0747 24.8649 20.6479 24.4834C20.6726 24.1864 20.6974 23.8647 20.7242 23.5574C21.151 23.5059 21.481 23.4646 21.8481 23.4193V10.376C21.4851 10.345 21.1634 10.3182 20.7592 10.2832C20.7984 9.71399 20.8335 9.21907 20.8541 8.92418C21.8996 8.52618 22.8647 8.31996 23.6504 7.8271C25.5022 6.66402 25.4321 4.52554 23.5432 3.42021C22.9699 3.08613 22.277 2.88198 21.615 2.78506C20.1901 2.57678 18.9115 3.01808 17.8474 3.95431C15.3274 1.91894 12.3682 1.73747 9.56157 3.96875C8.49954 3.08201 7.27667 2.64277 5.8682 2.74794C4.01017 2.8861 2.54189 4.00174 2.40166 5.40815C2.25525 6.85787 3.43482 8.12405 5.35059 8.57979C6.67863 8.89531 6.69926 8.92624 6.42499 10.3615H5.29697V23.4193C5.70941 23.4873 6.03729 23.5409 6.43117 23.6049C6.41467 23.9719 6.39818 24.2957 6.38168 24.6318C5.9878 24.671 5.68672 24.7019 5.35265 24.737L5.35471 24.7391Z" fill="#FDBA74"/>
<path d="M17.5711 24.6277V23.5265H18.9383V24.6277H17.5711Z" fill="#FDBA74"/>
<path d="M15.7749 24.6545H14.5108V23.5244H15.7749V24.6545Z" fill="#FDBA74"/>
<path d="M11.3268 24.6298C11.3082 24.2648 11.2917 23.9369 11.2732 23.5265H12.6899V24.6298H11.3268Z" fill="#FDBA74"/>
<path d="M8.22733 24.6153V23.5203H9.56982V24.6153H8.22733Z" fill="#FDBA74"/>
</svg>
